# xmcd
#
# Track frame offsets: 
#        150
#        20529
#        38876
#        61471
#        82957
#        101134
#        130109
#        148994
#        167160
#        193406
#        217109
#        251464
#        279734
#        299946
#        321694
#
# Disc length: 4542 seconds
#
# Revision: 1
# Processed by: cddbd v1.5.2PL0 Copyright (c) Steve Scherf et al.
# Submitted via: ExactAudioCopy v0.99pb5
#
DISCID=0011bc0f
DTITLE=Various Artist - Cool Chill Out [CD 2 of 2)
DYEAR=2009
DGENRE=Easy Listening
TTITLE0=Garbage - Milk (Massive Attack Remix)
TTITLE1=Everything But THe Girl Missong
TTITLE2=The Beloved - The Sun Rising
TTITLE3=DJ Shadow - Fixed Income
TTITLE4=Electribe 101 - Talking With Myself '98
TTITLE5=David Holmes - Rodney Yates
TTITLE6=Robyn - With Every Heartbeat
TTITLE7=Rob D Clubbed To Death (First Mix By Rob Dougan)
TTITLE8=Talvin Singh - Traveller (Kid Loco's Once Upon A Time In The E
TTITLE8=ast Mix)
TTITLE9=Unkle (feat. Ian Brown) - Be There
TTITLE10=Lamb - Trans Fatty Acid
TTITLE11=The Aliens - Rox
TTITLE12=Ian Brown - Set My Baby Free
TTITLE13=Nitin Sawhney - Falling
TTITLE14=The Orb - Little Fluffy Clouds
EXTD=
EXTT0=
EXTT1=
EXTT2=
EXTT3=
EXTT4=
EXTT5=
EXTT6=
EXTT7=
EXTT8=
EXTT9=
EXTT10=
EXTT11=
EXTT12=
EXTT13=
EXTT14=
PLAYORDER=
